<svg xmlns="http://www.w3.org/2000/svg" viewBox="0 0 100 100"><style>path{fill:#e95201}@media (prefers-color-scheme:dark){path{fill:#66fcf1}}</style><path d="M21.42 69.337c2.969 1.037 6.297 1.11 9.357.481 6.211-1.278 11.106-3.323 15.11-5.716a4.058 4.058 0 001.938-2.928c.611-4.398 1.71-15.272-1.543-19.773-2.166-2.998-5.226-4.682-8.814-5.394-2.928-.58-5.61-1.144-8.14-2.546-.529-.293-.341-1.096.263-1.109 3.124-.068 6.254-.113 9.337.359 3.719.57 7.427 1.964 10.086 4.625a7.486 7.486 0 00.185-3.399.403.403 0 01.642-.389c1.703 1.296 2.931 3.19 3.671 5.212.862 2.357 1.114 4.893 1.192 7.401a7.497 7.497 0 001.608-1.887c.22-.368.771-.296.861.123.146.681.332 1.372.367 1.817.103 1.334.117 2.675.041 4.011-.138 2.421-.566 4.84-1.216 7.175 0 0 9.875-12.5 4.917-25.583-4.958-13.083-16.5-20.083-16.5-20.083s-3.875-5-5.583-5c-1.708 0-.917 9.832-.917 9.834.062.776-1.752 2.349-2.228 2.933a31.327 31.327 0 01-3.524 3.669c-2.957 2.616-6.304 4.253-9.778 6.037-.378.194-.794.434-.898.845-.083.326.059.665.217.962 2.696 5.053 10.406 6.622 15.545 6.804.337.012-.099 1.922-.135 2.03-.769 2.349-2.723 4.017-4.523 5.563-4.335 3.724-9.457 6.569-13.178 10.98-1.214 1.439-2.27 3.059-2.75 4.879-.48 1.82-.327 3.867.72 5.431.852 1.274 2.222 2.131 3.67 2.636zm15.195-43.685c1.105 0 2 .485 2 1.083s-.895 1.083-2 1.083-2-.485-2-1.083.896-1.083 2-1.083z"/><path d="M86.033 76.402c0-9.087-6.891-15.884-15.864-16.244a22.354 22.354 0 00-4.27.246c-5.878.899-11.133 3.928-16.231 6.814-5.267 2.981-10.465 5.697-16.429 7.031-5.418 1.212-11.328 1.61-15.788-2.275a13.024 13.024 0 01-1.828-1.956c-.262-.346-.783-1.525-1.371-1.401-.406.088-.286 1.232-.25 1.767.529 7.758 3.485 15.942 10.53 20.026 3.796 2.2 8.286 3.118 12.661 2.791 8.599-.642 16.598-5.358 24.726-7.912 4.361-1.371 8.898-2.574 13.446-1.304 4.692 1.311 4.866 4.864 4.349 7.319-.142.674.697 1.116 1.154.6 5.641-6.37 5.165-15.502 5.165-15.502zm-14.644-5.289c-2.479-.116-4.969.168-7.385.764-2.429.573-4.795 1.469-7.162 2.433-2.362.982-4.716 2.07-7.174 2.986a47.143 47.143 0 016.497-4.386c2.294-1.283 4.763-2.319 7.369-2.977 2.614-.609 5.354-.83 8.029-.372 2.665.438 5.222 1.563 7.18 3.319-2.404-1.043-4.874-1.636-7.354-1.767z"/></svg>