<?xml version="1.0" standalone="no"?>
<!DOCTYPE svg PUBLIC "-//W3C//DTD SVG 20010904//EN"
 "http://www.w3.org/TR/2001/REC-SVG-20010904/DTD/svg10.dtd">
<svg version="1.0" xmlns="http://www.w3.org/2000/svg"
 width="700.000000pt" height="700.000000pt" viewBox="0 0 700.000000 700.000000"
 preserveAspectRatio="xMidYMid meet">
<metadata>
Created by potrace 1.11, written by Peter Selinger 2001-2013
</metadata>
<g transform="translate(0.000000,700.000000) scale(0.100000,-0.100000)"
fill="#000000" stroke="none">
<path d="M2717 6513 c-18 -21 -33 -75 -42 -158 -8 -69 -8 -331 0 -451 5 -76 4
-83 -22 -121 -34 -50 -144 -171 -283 -312 -171 -174 -322 -279 -637 -442 -87
-45 -168 -91 -180 -102 -38 -34 -27 -84 40 -172 169 -223 522 -367 982 -400
22 -2 46 -3 54 -4 11 -1 13 -14 8 -60 -8 -75 -34 -142 -80 -212 -36 -55 -165
-187 -247 -254 -25 -21 -47 -40 -50 -44 -8 -10 -148 -116 -415 -314 -220 -164
-427 -360 -526 -499 -270 -381 -154 -747 267 -847 81 -19 96 -22 169 -29 180
-19 351 2 640 78 321 85 764 282 869 387 68 68 80 103 101 303 3 30 8 73 10
95 22 202 23 629 1 730 -2 11 -7 40 -10 65 -45 334 -261 580 -611 695 -59 19
-138 37 -348 80 -61 13 -205 63 -279 97 -97 45 -116 69 -79 99 19 15 46 17
263 14 134 -2 268 -6 298 -10 153 -19 336 -57 405 -85 163 -66 265 -123 351
-196 l63 -54 11 42 c7 22 10 78 9 122 -2 45 0 87 4 93 12 19 37 5 95 -51 99
-95 180 -237 222 -389 22 -82 24 -90 34 -152 17 -119 20 -149 25 -259 1 -29 1
-29 22 -10 15 13 86 104 93 120 1 1 11 4 22 8 24 7 38 -18 49 -83 3 -19 8 -38
11 -42 13 -22 6 -341 -11 -469 -3 -19 -7 -52 -10 -72 -4 -32 -31 -158 -51
-238 -6 -24 85 102 128 177 41 73 127 249 147 303 12 30 26 64 31 75 16 36 67
209 84 287 45 204 52 435 21 643 -40 266 -225 653 -458 960 -62 81 -80 102
-152 184 -63 72 -235 241 -300 296 -33 28 -71 60 -85 73 -14 12 -68 53 -120
90 -97 69 -136 104 -180 158 -80 101 -212 225 -272 255 -46 24 -61 24 -81 2z
m-66 -1323 c3 0 15 -9 27 -20 57 -54 -2 -113 -113 -114 -69 0 -114 18 -132 53
-22 45 15 80 97 91 25 3 61 2 80 -2 19 -4 38 -8 41 -8z"/>
<path d="M4708 2785 c-2 -2 -28 -6 -58 -9 -246 -27 -521 -127 -892 -324 -105
-56 -261 -143 -273 -152 -5 -4 -41 -24 -80 -45 -38 -21 -113 -61 -165 -90
-107 -58 -268 -136 -380 -184 -41 -18 -88 -38 -105 -45 -64 -28 -245 -86 -355
-114 -630 -162 -1060 -65 -1317 296 -72 100 -106 104 -105 12 0 -16 14 -182
18 -220 12 -103 56 -297 93 -409 194 -589 606 -940 1196 -1018 74 -9 320 -10
395 0 177 22 415 81 610 150 153 54 589 224 685 268 128 57 524 183 688 218
139 30 157 32 300 35 398 9 625 -139 629 -409 1 -33 -2 -82 -6 -110 -7 -58 1
-76 38 -80 21 -3 34 8 74 58 128 162 236 396 277 598 111 547 22 944 -281
1244 -226 225 -522 338 -871 334 -62 -1 -113 -3 -115 -4z m327 -660 c117 -24
219 -61 310 -111 75 -42 169 -112 135 -100 -258 86 -370 109 -550 109 -91 0
-229 -9 -270 -18 -14 -3 -41 -8 -60 -11 -19 -3 -43 -7 -52 -10 -22 -6 -53 -14
-108 -25 -109 -23 -311 -99 -799 -303 -74 -31 -136 -54 -138 -53 -5 6 62 57
182 139 338 232 652 362 950 394 33 3 61 7 63 9 10 9 272 -6 337 -20z"/>
</g>
</svg>
