<svg height="462pt" viewBox="-46 0 462 462.21921" width="462pt" xmlns="http://www.w3.org/2000/svg"><path d="m216.660156 441.78125-9.929687-24.796875c-7.332031-18.238281-21.773438-32.703125-40-40.066406l-53.597657-21.597657c-20.019531-8.046874-36.375-23.171874-45.960937-42.496093l-18.519531-37.296875c-25.613282 31.820312-23.136719 77.828125 5.742187 106.71875l56.5625 56.5625c29.058594 29.039062 75.394531 31.347656 107.199219 5.335937-.632812-.695312-1.136719-1.496093-1.496094-2.363281zm0 0" fill="#603913"/><path d="m224.089844 325.671875-56.566406-56.570313c-29.09375-29.082031-75.5-31.363281-107.304688-5.269531.519531.503907.96875 1.082031 1.328125 1.710938l19.945313 40.160156c7.84375 15.808594 21.226562 28.183594 37.597656 34.769531l53.601562 21.597656c22.257813 9.011719 39.894532 26.683594 48.855469 48.960938l8.441406 21.105469c25.417969-31.816407 22.878907-77.652344-5.898437-106.464844zm0 0" fill="#754c29"/><path d="m357.050781 109c-.625.589844-1.34375 1.074219-2.128906 1.429688l-27.628906 11.449218c-16.683594 6.941406-29.003907 21.488282-33.097657 39.085938l-5.601562 24c-5.300781 22.773437-21.3125 41.5625-42.957031 50.402344l-22.777344 9.28125c25.472656 19.1875 61.183594 16.699218 83.742187-5.839844l45.257813-45.257813c22.804687-22.84375 25.03125-59.089843 5.191406-84.550781zm0 0" fill="#8b5e3c"/><path d="m239.667969 220.558594c16.832031-6.878906 29.289062-21.488282 33.414062-39.199219l5.554688-24c5.269531-22.625 21.109375-41.332031 42.558593-50.257813l23.839844-9.886718c-25.457031-19.160156-61.132812-16.671875-83.6875 5.832031l-45.257812 45.246094c-22.804688 22.84375-25.035156 59.089843-5.199219 84.554687.640625-.605468 1.378906-1.09375 2.183594-1.449218zm0 0" fill="#754c29"/><path d="m43.53125 36.886719c2.105469 17.199219 12.003906 32.472656 26.839844 41.417969l29.257812 17.511718c20.089844 12.046875 33.074219 33.101563 34.8125 56.460938l1.28125 17.265625c24.933594-19.667969 31.65625-54.652344 15.792969-82.160157l-32-55.425781c-16.15625-27.933593-50.585937-39.472656-80.3125-26.910156.410156.792969.679687 1.652344.800781 2.535156zm0 0" fill="#a97c50"/><path d="m120.890625 178.320312c-.453125-.914062-.722656-1.90625-.800781-2.921874l-1.597656-21.945313c-1.363282-18.164063-11.460938-34.539063-27.082032-43.910156l-29.261718-17.511719c-19.066407-11.5-31.789063-31.125-34.503907-53.222656l-3-25.136719c-25.070312 19.636719-31.886719 54.714844-16 82.3125l32 55.421875c16.152344 27.902344 50.539063 39.433594 80.246094 26.914062zm0 0" fill="#754c29"/><path d="m221.59375 411.015625c-8.960938-22.277344-26.597656-39.949219-48.855469-48.960937l-53.597656-21.601563c-16.375-6.582031-29.757813-18.957031-37.601563-34.765625l-19.945312-40.160156c-.359375-.628906-.804688-1.207032-1.328125-1.710938-2.03125 1.65625-3.976563 3.417969-5.832031 5.269532-2.027344 2.03125-3.945313 4.167968-5.742188 6.402343l18.519532 37.292969c9.585937 19.328125 25.945312 34.453125 45.960937 42.496094l53.597656 21.601562c18.226563 7.363282 32.667969 21.828125 40 40.0625l9.929688 24.800782c.363281.882812.882812 1.695312 1.527343 2.402343 2.03125-1.671875 4-3.441406 5.90625-5.335937 2.101563-2.121094 4.085938-4.355469 5.941407-6.691406zm0 0" fill="#482b0e"/><g fill="#603913"><path d="m351.859375 103.039062c-2.136719-2.101562-4.417969-4.046874-6.824219-5.832031l-23.839844 9.886719c-21.449218 8.925781-37.289062 27.632812-42.558593 50.257812l-5.554688 24c-4.125 17.710938-16.582031 32.320313-33.414062 39.199219l-26.59375 10.839844c-.804688.355469-1.542969.84375-2.183594 1.449219 3.40625 4.5 7.445313 8.476562 12 11.808594l22.777344-9.28125c21.644531-8.839844 37.65625-27.628907 42.960937-50.402344l5.597656-24c4.089844-17.589844 16.394532-32.136719 33.066407-39.085938l27.597656-11.449218c.785156-.355469 1.503906-.839844 2.128906-1.429688-1.597656-2.089844-3.320312-4.082031-5.160156-5.960938zm0 0"/><path d="m134.441406 152.277344c-1.738281-23.359375-14.722656-44.414063-34.8125-56.460938l-29.257812-17.511718c-14.835938-8.945313-24.734375-24.21875-26.839844-41.417969l-3.496094-29.28125c-.121094-.882813-.390625-1.742188-.800781-2.535157-5.25 2.136719-10.15625 5.035157-14.558594 8.601563l2.96875 25.136719c2.707031 22.105468 15.429688 41.742187 34.503907 53.246094l29.261718 17.511718c15.617188 9.367188 25.710938 25.730469 27.082032 43.886719l1.597656 21.945313c.078125 1.015624.347656 2.007812.800781 2.921874 5.351563-2.179687 10.34375-5.144531 14.816406-8.800781zm0 0"/></g></svg>