<svg height="464pt" viewBox="0 0 464 464" width="464pt" xmlns="http://www.w3.org/2000/svg"><path d="m344 296h-16c-4.417969 0-8-3.582031-8-8v-64c0-4.417969 3.582031-8 8-8h16c22.089844 0 40 17.910156 40 40s-17.910156 40-40 40zm-8-16h8c13.253906 0 24-10.746094 24-24s-10.746094-24-24-24h-8zm0 0" fill="#d8d7da"/><path d="m392 64v32h-216v288h-176v-384h328c35.347656 0 64 28.652344 64 64zm0 0" fill="#57565c"/><path d="m256 144h32v32h-32zm0 0" fill="#898890"/><path d="m266.800781 250.328125 15.808594-4.59375c13.417969-3.902344 27.628906-4.214844 41.207031-.910156l12.183594 2.960937v-39.785156h-128v39.785156l20.800781 4.160156c12.613281 2.519532 25.644531 1.964844 38-1.617187zm0 0" fill="#d8d7da"/><path d="m336 288v-40.214844l-12.183594-2.960937c-13.578125-3.304688-27.789062-2.992188-41.207031.910156l-15.808594 4.59375c-12.355469 3.578125-25.390625 4.125-38 1.601563l-20.800781-4.160157v40.230469c0 35.347656 28.652344 64 64 64s64-28.652344 64-64zm0 0" fill="#8b5e3c"/><path d="m424 384v-32h-248v32zm0 0" fill="#acabb1"/><path d="m424 384h-424v32c0 26.507812 21.492188 48 48 48h368c26.507812 0 48-21.492188 48-48v-32zm0 0" fill="#898890"/><path d="m64 160h48c8.835938 0 16 7.164062 16 16v144c0 8.835938-7.164062 16-16 16h-48c-8.835938 0-16-7.164062-16-16v-144c0-8.835938 7.164062-16 16-16zm0 0" fill="#00b6bd"/><path d="m104 208c0 8.835938-7.164062 16-16 16s-16-7.164062-16-16 7.164062-16 16-16 16 7.164062 16 16zm0 0" fill="#ffaf46"/><path d="m104 280c0 8.835938-7.164062 16-16 16s-16-7.164062-16-16 7.164062-16 16-16 16 7.164062 16 16zm0 0" fill="#ffaf46"/><path d="m416 440h-368c-13.253906 0-24-10.746094-24-24 0-4.417969 3.582031-8 8-8s8 3.582031 8 8 3.582031 8 8 8h368c4.417969 0 8-3.582031 8-8s3.582031-8 8-8 8 3.582031 8 8c0 13.253906-10.746094 24-24 24zm0 0" fill="#57565c"/><path d="m384 136h-72c-4.417969 0-8-3.582031-8-8s3.582031-8 8-8h72c4.417969 0 8 3.582031 8 8s-3.582031 8-8 8zm0 0" fill="#898890"/><g fill="#3e3d42"><path d="m320 56h-256c-4.417969 0-8-3.582031-8-8s3.582031-8 8-8h256c4.417969 0 8 3.582031 8 8s-3.582031 8-8 8zm0 0"/><path d="m352 56h-8c-4.417969 0-8-3.582031-8-8s3.582031-8 8-8h8c4.417969 0 8 3.582031 8 8s-3.582031 8-8 8zm0 0"/><path d="m40 56h-8c-4.417969 0-8-3.582031-8-8s3.582031-8 8-8h8c4.417969 0 8 3.582031 8 8s-3.582031 8-8 8zm0 0"/></g><path d="m216 112c0 17.671875 14.328125 32 32 32h48c17.671875 0 32-14.328125 32-32v-16h-112zm0 0" fill="#c6c5ca"/><path d="m448 112h-64v32h64c8.835938 0 16-7.164062 16-16s-7.164062-16-16-16zm0 0" fill="#754c29"/></svg>