<svg height="464pt" viewBox="-88 0 464 464" width="464pt" xmlns="http://www.w3.org/2000/svg"><path d="m28.71875 200h230.5625l4.71875-64h-240zm0 0" fill="#ebe5dd"/><path d="m48 464h192l5.28125-72h-202.5625zm0 0" fill="#ebe5dd"/><path d="m24 80h-24v56h288v-56zm0 0" fill="#806749"/><path d="m250.574219 12.863281c-1.492188-7.480469-8.0625-12.86718725-15.695313-12.863281h-181.757812c-7.632813-.00390625-14.203125 5.382812-15.695313 12.863281l-13.425781 67.136719h240zm0 0" fill="#a78966"/><path d="m259.28125 200-14 192h-202.5625l-14-192zm0 0" fill="#c0ab91"/><path d="m134.625 328c12.496094 12.496094 32.757812 12.496094 45.253906 0l-6.214844-12.367188c-3.367187-6.703124-8.984374-12.007812-15.863281-14.992187l-19.777343-8.578125c-6.179688-2.675781-11.359376-7.238281-14.800782-13.03125l-11.222656-18.910156c-12.496094 12.496094-12.496094 32.757812 0 45.253906zm0 0" fill="#8b5e3c"/><path d="m138.023438 292.0625 19.777343 8.578125c6.878907 2.984375 12.496094 8.289063 15.863281 14.992187l6.214844 12.367188c12.5-12.496094 12.5-32.757812 0-45.257812l-22.621094-22.621094c-12.5-12.5-32.761718-12.5-45.257812 0l11.199219 18.910156c3.445312 5.796875 8.632812 10.359375 14.824219 13.03125zm0 0" fill="#a97c50"/><path d="m186.089844 332.992188c15.101562-15.664063 14.855468-40.542969-.554688-55.902344l-22.625-22.625c-15.628906-15.59375-40.933594-15.59375-56.566406 0-.238281.230468-.398438.519531-.632812.800781-.0625.078125-.144532.160156-.207032.246094-14.828125 15.679687-14.453125 40.320312.839844 55.542969l22.625 22.632812c15.632812 15.59375 40.933594 15.59375 56.566406 0 .113282-.113281.183594-.238281.296875-.351562zm-51.457032-74.230469c6.363282-.011719 12.46875 2.511719 16.96875 7.015625l22.621094 22.621094c6.089844 5.96875 8.460938 14.769531 6.183594 22.984374-4.226562-8.066406-11.082031-14.445312-19.429688-18.085937l-19.777343-8.570313c-4.636719-2-8.519531-5.421874-11.085938-9.773437l-7.609375-12.800781c3.667969-2.191406 7.855469-3.363282 12.128906-3.390625zm5.648438 63.582031-22.625-22.632812c-6.414062-6.277344-8.671875-15.671876-5.816406-24.183594l4.503906 7.59375c4.289062 7.246094 10.765625 12.949218 18.496094 16.285156l19.777344 8.59375c5.152343 2.226562 9.363281 6.191406 11.894531 11.199219l3.289062 6.535156c-9.441406 5.832031-21.648437 4.429687-29.519531-3.390625zm0 0" fill="#754c29"/></svg>