<svg height="464pt" viewBox="0 0 464 464" width="464pt" xmlns="http://www.w3.org/2000/svg"><path d="m32 144h400v320h-400zm0 0" fill="#898890"/><path d="m160 48h256v-16c0-17.671875-14.328125-32-32-32h-304c-17.671875 0-32 14.328125-32 32v16zm0 0" fill="#898890"/><path d="m312 144-8-96h-72v96zm0 0" fill="#ffcd00"/><path d="m312 144h80l-16-96h-72zm0 0" fill="#ff5023"/><path d="m416 48h-40l16 96h72l-24-96zm0 0" fill="#ffcd00"/><path d="m232 144v-96h-72l-8 96zm0 0" fill="#ff5023"/><path d="m160 48h-72l-16 96h80zm0 0" fill="#ffcd00"/><path d="m88 48h-64l-24 96h72zm0 0" fill="#ff5023"/><path d="m232 144v8c.003906 5.5 1.121094 10.941406 3.28125 16 6.386719 14.582031 20.796875 24.003906 36.71875 24.003906s30.332031-9.421875 36.71875-24.003906c2.160156-5.058594 3.277344-10.5 3.28125-16v-8zm0 0" fill="#ffe477"/><path d="m312 152c.003906 5.5 1.121094 10.941406 3.28125 16 6.386719 14.582031 20.796875 24.003906 36.71875 24.003906s30.332031-9.421875 36.71875-24.003906c2.160156-5.058594 3.277344-10.5 3.28125-16v-8h-80zm0 0" fill="#ff6243"/><path d="m392 152v4c-.011719 4.089844.691406 8.152344 2.078125 12 5.054687 14.398438 18.664063 24.023438 33.921875 24 1.335938.003906 2.671875-.078125 4-.238281 18.214844-2.039063 31.992188-17.433594 32-35.761719v-12h-72zm0 0" fill="#ffe477"/><path d="m152 144v8c.003906 5.5 1.121094 10.941406 3.28125 16 6.386719 14.582031 20.796875 24.003906 36.71875 24.003906s30.332031-9.421875 36.71875-24.003906c2.160156-5.058594 3.277344-10.5 3.28125-16v-8zm0 0" fill="#ff6243"/><path d="m72 144v8c.003906 5.5 1.121094 10.941406 3.28125 16 6.386719 14.582031 20.796875 24.003906 36.71875 24.003906s30.332031-9.421875 36.71875-24.003906c2.160156-5.058594 3.277344-10.5 3.28125-16v-8zm0 0" fill="#ffe477"/><path d="m69.921875 168c1.386719-3.847656 2.089844-7.910156 2.078125-12v-12h-72v12c.0078125 18.328125 13.785156 33.722656 32 35.761719 1.328125.160156 2.664062.242187 4 .238281 15.257812.023438 28.867188-9.601562 33.921875-24zm0 0" fill="#ff6243"/><path d="m64 256h112v208h-112zm0 0" fill="#c6c5ca"/><path d="m344 312v-8h-112v40c-.035156 24.453125 15.828125 46.09375 39.15625 53.425781 23.328125 7.328125 48.714844-1.347656 62.675781-21.425781h10.167969c17.671875 0 32-14.328125 32-32s-14.328125-32-32-32zm11.304688 43.304688c-2.992188 3.011718-7.0625 4.703124-11.304688 4.695312h-2.015625c.761719-3.039062 1.296875-6.136719 1.601563-9.257812.269531-2.234376.410156-4.488282.414062-6.742188v-16c6.464844.007812 12.289062 3.90625 14.765625 9.878906 2.472656 5.972656 1.105469 12.847656-3.460937 17.425782zm0 0" fill="#e0e0e2"/><path d="m352 424h-128c-4.417969 0-8-3.582031-8-8s3.582031-8 8-8h128c4.417969 0 8 3.582031 8 8s-3.582031 8-8 8zm0 0" fill="#e0e0e2"/><g fill="#ffaf46"><path d="m264 288c-4.417969 0-8-3.582031-8-8 0-16 10.648438-24 19.199219-30.398438 8.175781-6.128906 12.800781-9.976562 12.800781-17.601562 0-4.417969 3.582031-8 8-8s8 3.582031 8 8c0 16-10.648438 24-19.199219 30.398438-8.175781 6.128906-12.800781 9.976562-12.800781 17.601562 0 4.417969-3.582031 8-8 8zm0 0"/><path d="m304 288c-4.417969 0-8-3.582031-8-8 0-16 10.648438-24 19.199219-30.398438 8.175781-6.128906 12.800781-9.976562 12.800781-17.601562 0-4.417969 3.582031-8 8-8s8 3.582031 8 8c0 16-10.648438 24-19.199219 30.398438-8.175781 6.128906-12.800781 9.976562-12.800781 17.601562 0 4.417969-3.582031 8-8 8zm0 0"/></g></svg>